# xmcd CD database file
#
# Track frame offsets:
#	150
#	12987
#	26904
#	39696
#	54402
#	67508
#	83494
#	98124
#	113242
#	134941
#	148744
#	165549
#
# Disc length: 2427 seconds
#
# Revision: 0
# Processed by: cddbd v1.5.2PL0 Copyright (c) Steve Scherf et al.
# Submitted via: CDex 1.51
#
DISCID=9f09790c
DTITLE=Willie Nelson And Asleep At The Wheel - Willie And The Wheel
DYEAR=2009
DGENRE=Jazz
TTITLE0=Hesitation Blues
TTITLE1=Sweet Jennie Lee
TTITLE2=Fan It
TTITLE3=I Ain't Gonna Give Nobody None O' This Jellyroll
TTITLE4=Oh! You Pretty Woman
TTITLE5=Bring It On Down To My House
TTITLE6=Right Or Wrong
TTITLE7=Corrine Corrina
TTITLE8=I'm Sittin' On Top Of The World
TTITLE9=Shame On You
TTITLE10=South" (With Paul Shaffer And Vince Gill) 
TTITLE11=Won't You Ride In My Little Red Wagon
EXTD=YEAR: 2009
EXTT0=
EXTT1=
EXTT2=
EXTT3=
EXTT4=
EXTT5=
EXTT6=
EXTT7=
EXTT8=
EXTT9=
EXTT10=
EXTT11=
PLAYORDER=
